# AST/ASF file generated using VICON BodyLanguage
# -----------------------------------------------
:version 1.10
:name VICON
:units
  mass 1.0
  length 0.45
  angle deg
:documentation
   .ast/.asf automatically generated from VICON data using
   VICON BodyBuilder and BodyLanguage model FoxedUp or BRILLIANT.MOD
:root
   order TX TY TZ RX RY RZ
   axis XYZ
   position 0 0 0  
   orientation 0 0 0 
:bonedata
  begin
     id 1 
     name lhipjoint
     direction 0.702568 -0.596508 0.388042 
     length 2.56661 
     axis 0 0 0  XYZ
  end
  begin
     id 2 
     name lfemur
     direction 0.34202 -0.939693 0  
     length 6.58374  
     axis 0 0 20  XYZ
    dof rx ry rz
    limits (-160.0 20.0)
           (-70.0 70.0)
           (-60.0 70.0)
  end
  begin
     id 3 
     name ltibia
     direction 0.34202 -0.939693 0   
     length 6.62538   
     axis 0 0 20   XYZ
    dof rx
    limits (-10.0 170.0)
  end
  begin
     id 4 
     name lfoot
     direction 0.10455 -0.287249 0.952133   
     length 2.26699   
     axis -90 7.62852e-016 20   XYZ
    dof rx rz
    limits (-45.0 90.0)
           (-70.0 20.0)
  end
  begin
     id 5 
     name ltoes
     direction 1.53572e-011 -4.22322e-011 1   
     length 1.12949   
     axis -90 7.62852e-016 20   XYZ
    dof rx
    limits (-90.0 20.0)
  end
  begin
     id 6 
     name rhipjoint
     direction -0.728055 -0.574632 0.373811   
     length 2.66432  
     axis 0 0 0  XYZ 
  end
  begin
     id 7 
     name rfemur
     direction -0.34202 -0.939693 0   
     length 6.66732   
     axis 0 0 -20   XYZ
    dof rx ry rz
    limits (-160.0 20.0)
           (-70.0 70.0)
           (-70.0 60.0)
  end
  begin
     id 8 
     name rtibia
     direction -0.34202 -0.939693 0   
     length 6.59288   
     axis 0 0 -20   XYZ
    dof rx
    limits (-10.0 170.0)
 end
 begin
     id 9 
     name rfoot
     direction -0.119193 -0.327479 0.93731   
     length 2.38061  
     axis -90 -7.62852e-016 -20   XYZ
    dof rx rz
    limits (-45.0 90.0)
           (-20.0 70.0)
  end
  begin
     id 10 
     name rtoes
     direction -1.53547e-011 -4.21827e-011 1   
     length 1.17899   
     axis -90 -7.62852e-016 -20   XYZ
    dof rx
    limits (-90.0 20.0)
  end
  begin
     id 11 
     name lowerback
     direction -0.000416114 0.999912 -0.0132284   
     length 2.12109   
     axis 0 0 0   XYZ
    dof rx ry rz
    limits (-20.0 45.0)
           (-30.0 30.0)
           (-30.0 30.0)
  end
  begin
     id 12 
     name upperback
     direction -0.00136371 0.99809 0.0617608   
     length 2.10067   
     axis 0 0 0   XYZ
    dof rx ry rz
    limits (-20.0 45.0)
           (-30.0 30.0)
           (-30.0 30.0)
  end
  begin
     id 13 
     name thorax
     direction -3.43026e-005 0.997776 0.0666515   
     length 2.10618   
     axis 0 0 0   XYZ
    dof rx ry rz
    limits (-20.0 45.0)
           (-30.0 30.0)
           (-30.0 30.0)
  end
  begin
     id 14 
     name lowerneck
     direction 0.0398646 0.998418 0.0396592   
     length 1.83817   
     axis 0 0 0   XYZ
    dof rx ry rz
    limits (-20.0 45.0)
           (-30.0 30.0)
           (-30.0 30.0)
  end
  begin
     id 15 
     name upperneck
     direction -0.0367268 0.961527 -0.272244   
     length 1.81975   
     axis 0 0 0   XYZ
    dof rx ry rz
    limits (-20.0 45.0)
           (-30.0 30.0)
           (-30.0 30.0)
  end
  begin
     id 16
     name head
     direction -0.0182665 0.99536 -0.0944669  
     length 1.86026  
     axis 0 0 0   XYZ
    dof rx ry rz
    limits (-20.0 45.0)
           (-30.0 30.0)
           (-30.0 30.0)
  end
  begin
     id 17 
     name lclavicle
     direction 0.924239 0.361045 0.124212  
     length 3.26878  
     axis 0 0 0   XYZ
    dof ry rz
    limits (-20.0 10.0)
           (0.0 20.0)
  end
  begin
     id 18 
     name lhumerus
     direction 1 -4.48968e-011 -2.56583e-027   
     length 4.58538   
     axis 180 -30 -90   XYZ
    dof rx ry rz
    limits (-60.0 90.0)
           (-90.0 90.0)
           (-90.0 90.0)
  end
  begin
     id 19
     name lradius
     direction 1 -4.4898e-011 -5.50375e-027   
     length 2.68935   
     axis 180 -30 -90   XYZ
    dof rx
    limits (-10.0 170.0)
  end
  begin
     id 20
     name lwrist
     direction 1 -4.48939e-011 -1.48955e-026   
     length 1.34468   
     axis 9.0955e-015 90 90   XYZ
    dof ry
    limits (-180.0 0.0)
 end
  begin
     id 21 
     name lhand
     direction 1 -4.48936e-011 -2.97907e-026   
     length 0.585058   
     axis 1.90115e-014 90 90   XYZ
    dof rx rz
    limits (-90.0 90.0)
           (-45.0 45.0)
  end
  begin
     id 22 
     name lfingers
     direction 1 -4.49082e-011 -5.96235e-026   
     length 0.471689   
     axis 3.80223e-014 90 90   XYZ
    dof rx
    limits (0.0 90.0)
  end
  begin
     id 23
     name lthumb
     direction 0.707107 -6.3489e-011 0.707107   
     length 0.677253   
     axis -90 45 -3.84942e-014   XYZ
    dof rx rz
    limits (-45.0 45.0)
           (-45.0 45.0)
  end
  begin
     id 24 
     name rclavicle
     direction -0.923098 0.371783 0.0983239   
     length 3.19656  
     axis 0 0 0   XYZ 
    dof ry rz
    limits (-10.0 20.0)
           (-20.0 0.0)
  end
  begin
     id 25 
     name rhumerus
     direction -1 -4.48976e-011 -2.5492e-027  
     length 4.4745   
     axis 180 30 90   XYZ
    dof rx ry rz
    limits (-90.0 60.0)
           (-90.0 90.0)
           (-90.0 90.0)
  end
  begin
     id 26 
     name rradius
     direction -1 -4.48941e-011 -4.36555e-027   
     length 2.93896   
     axis 180 30 90   XYZ
    dof rx
    limits (-10.0 170.0)
  end
  begin
     id 27 
     name rwrist
     direction -1 -4.49044e-011 -1.49032e-026   
     length 1.46948   
     axis 9.0955e-015 -90 -90   XYZ
    dof ry
    limits (-180.0 0.0)
  end
  begin
     id 28
     name rhand
     direction -1 -4.48826e-011 -2.97749e-026   
     length 0.405092   
     axis 1.90115e-014 -90 -90   XYZ
    dof rx rz
    limits (-90.0 90.0)
           (-45.0 45.0)
  end
  begin
     id 29
     name rfingers
     direction -1 -4.49209e-011 -5.96602e-026   
     length 0.326596   
     axis 3.80223e-014 -90 -90   XYZ
    dof rx
    limits (0.0 90.0)
  end
  begin
     id 30
     name rthumb
     direction -0.707107 -6.34776e-011 0.707107   
     length 0.468928   
     axis -90 -45 3.84942e-014   XYZ
    dof rx rz
    limits (-45.0 45.0)
           (-45.0 45.0)
  end
:hierarchy
  begin
    root lhipjoint rhipjoint lowerback
    lhipjoint lfemur
    lfemur ltibia
    ltibia lfoot
    lfoot ltoes
    rhipjoint rfemur
    rfemur rtibia
    rtibia rfoot
    rfoot rtoes
    lowerback upperback
    upperback thorax
    thorax lowerneck lclavicle rclavicle
    lowerneck upperneck
    upperneck head
    lclavicle lhumerus
    lhumerus lradius
    lradius lwrist
    lwrist lhand lthumb
    lhand lfingers
    rclavicle rhumerus
    rhumerus rradius
    rradius rwrist
    rwrist rhand rthumb
    rhand rfingers
  end

#!OML:ASF H:\Punching\Project 1\Capture day 1\Session 1\female.ASF
:FULLY-SPECIFIED
:DEGREES
497
root 1.19242 14.7216 2.75323 16.3155 20.0986 1.22785
lowerback 0.775919 -0.531703 0.00156489
upperback -6.14353 -0.585856 1.75313
thorax -6.80472 -0.222775 1.86609
lowerneck -11.3312 -7.30449 1.26118
upperneck 23.1561 -13.0233 10.3307
head 9.89597 -4.786 1.80387
rclavicle 9.59136e-015 1.11319e-014
rhumerus 9.07147 -3.09397 -61.8452
rradius 114.376
rwrist -39.965
rhand -11.0023 -26.6807
rfingers 7.12502
rthumb 15.0183 -56.116
lclavicle 9.59136e-015 1.11319e-014
lhumerus 23.883 -47.5496 77.9981
lradius 132.273
lwrist 11.7203
lhand -23.6287 7.64918
lfingers 7.12502
lthumb 2.8359 37.6101
rfemur 16.6528 -25.3916 9.58487
rtibia 3.49861e-014
rfoot -20.6919 -15.2368
rtoes -0.478137
lfemur -53.4806 -7.45739 -15.9234
ltibia 42.5651
lfoot -5.23915 -4.12896
ltoes -1.84699
498
root 1.17474 14.7004 2.75869 16.362 22.1896 1.38788
lowerback 0.633479 -0.146988 0.335117
upperback -6.14857 -0.049308 1.77382
thorax -6.74526 0.027263 1.66395
lowerneck -11.07 -8.14351 0.276188
upperneck 22.5999 -14.0064 10.7455
head 9.80304 -5.31427 1.98457
rclavicle -3.51352e-014 -1.43125e-014
rhumerus 10.4663 -4.9108 -60.0022
rradius 109.898
rwrist -38.7152
rhand -11.9725 -26.9607
rfingers 7.12502
rthumb 14.0835 -56.4635
lclavicle -3.51352e-014 -1.43125e-014
lhumerus 24.2424 -47.419 77.4833
lradius 131.866
lwrist 11.4006
lhand -23.3087 7.6505
lfingers 7.12502
lthumb 3.14496 37.6071
rfemur 17.4491 -27.2516 9.68656
rtibia -9.54166e-015
rfoot -21.0655 -15.1179
rtoes 1.15788
lfemur -53.8269 -8.44012 -16.1164
ltibia 42.4351
lfoot -4.84738 -4.94126
ltoes -1.83322
499
root 1.15731 14.6805 2.76251 16.3542 24.0811 1.47168
lowerback 0.521717 0.238158 0.674399
upperback -6.13129 0.488057 1.82114
thorax -6.67461 0.278344 1.48821
lowerneck -10.8481 -8.88959 -0.590632
upperneck 22.1368 -14.8843 11.084
head 9.74499 -5.78458 2.12933
rclavicle -1.18774e-014 -2.78299e-014
rhumerus 12.0453 -6.54385 -58.2005
rradius 104.684
rwrist -36.6877
rhand -12.7674 -27.1398
rfingers 7.12502
rthumb 13.3174 -56.6943
lclavicle -1.18774e-014 -2.78299e-014
lhumerus 24.5673 -47.2182 76.9851
lradius 131.478
lwrist 10.9631
lhand -22.987 7.72902
lfingers 7.12502
lthumb 3.45561 37.6808
rfemur 18.1801 -28.9042 9.82955
rtibia -1.27222e-014
rfoot -21.3891 -15.0282
rtoes 2.66393
lfemur -54.1101 -9.2899 -16.248
ltibia 42.3373
lfoot -4.47243 -5.62353
ltoes -1.86985
500
root 1.1394 14.6629 2.7646 16.2904 25.7331 1.50084
lowerback 0.43787 0.630567 0.989792
upperback -6.10927 1.03322 1.86898
thorax -6.61059 0.534857 1.32754
lowerneck -10.5805 -9.5387 -1.31259
upperneck 21.7549 -15.6535 11.3632
head 9.6949 -6.19592 2.24534
rclavicle -2.2413e-014 -3.97569e-015
rhumerus 13.7579 -8.02185 -56.5098
rradius 98.7501
rwrist -34.0295
rhand -13.3065 -27.326
rfingers 7.12502
rthumb 12.7977 -56.9137
lclavicle -2.2413e-014 -3.97569e-015
lhumerus 24.7777 -47.0018 76.5586
lradius 131.111
lwrist 10.4464
lhand -22.6613 7.80368
lfingers 7.12502
lthumb 3.7702 37.7501
rfemur 18.8399 -30.3189 9.98902
rtibia 3.18055e-015
rfoot -21.6706 -14.9695
rtoes 4.01882
lfemur -54.3118 -9.95812 -16.3567
ltibia 42.2562
lfoot -4.11959 -6.22196
ltoes -1.89717
501
root 1.12087 14.6487 2.76523 16.1938 27.1301 1.50028
lowerback 0.394003 1.02078 1.25096
upperback -6.08571 1.57281 1.91468
thorax -6.56461 0.791565 1.19633
lowerneck -10.3528 -10.0836 -1.88844
upperneck 21.5057 -16.3103 11.5684
head 9.68044 -6.54153 2.32498
rclavicle 3.39922e-014 -6.36111e-015
rhumerus 15.6354 -9.37499 -54.9913
rradius 92.1383
rwrist -30.9551
rhand -13.4691 -27.5963
rfingers 7.12502
rthumb 12.641 -57.1938
lclavicle 3.39922e-014 -6.36111e-015
lhumerus 24.903 -46.7727 76.1967
lradius 130.779
lwrist 9.85949
lhand -22.3628 7.92758
lfingers 7.12502
lthumb 4.05844 37.8687
rfemur 19.4089 -31.4913 10.1487
rtibia -2.22639e-014
rfoot -21.8949 -14.9485
rtoes 5.14456
lfemur -54.4314 -10.4299 -16.4692
ltibia 42.1732
lfoot -3.80068 -6.75945
ltoes -1.93503
502
root 1.10219 14.6384 2.76494 16.0777 28.2556 1.49205
lowerback 0.369298 1.40734 1.44427
upperback -6.07299 2.10347 1.93702
thorax -6.5388 1.04672 1.07981
lowerneck -10.0985 -10.5204 -2.29943
upperneck 21.3742 -16.8495 11.7133
head 9.67872 -6.82019 2.37548
rclavicle 1.74434e-014 7.95139e-016
rhumerus 17.6319 -10.6352 -53.7159
rradius 84.9545
rwrist -27.6902
rhand -13.1779 -27.9668
rfingers 7.12502
rthumb 12.9217 -57.5467
lclavicle 1.74434e-014 7.95139e-016
lhumerus 24.8877 -46.566 75.9296
lradius 130.492
lwrist 9.23968
lhand -22.0847 8.08988
lfingers 7.12502
lthumb 4.32694 38.0257
rfemur 19.8854 -32.4112 10.2851
rtibia 1.59028e-014
rfoot -22.0674 -14.9565
rtoes 6.0036
lfemur -54.4657 -10.7033 -16.6047
ltibia 42.0787
lfoot -3.52755 -7.23431
ltoes -1.98144
503
root 1.08383 14.6327 2.76394 15.9693 29.1211 1.48789
lowerback 0.3657 1.78983 1.58765
upperback -6.07441 2.62509 1.92327
thorax -6.53749 1.29868 0.95402
lowerneck -9.89245 -10.861 -2.5727
upperneck 21.3935 -17.2925 11.8134
head 9.71825 -7.03687 2.39987
rclavicle -5.07895e-014 1.19271e-014
rhumerus 19.7025 -11.8266 -52.6946
rradius 77.3883
rwrist -24.4595
rhand -12.5272 -28.3468
rfingers 7.12502
rthumb 13.5489 -57.886
lclavicle -5.07895e-014 1.19271e-014
lhumerus 24.7872 -46.3921 75.7382
lradius 130.248
lwrist 8.64873
lhand -21.8309 8.2442
lfingers 7.12502
lthumb 4.5721 38.1749
rfemur 20.2504 -33.0947 10.4001
rtibia 6.04305e-014
rfoot -22.175 -14.9935
rtoes 6.59645
lfemur -54.438 -10.8037 -16.7612
ltibia 41.966
lfoot -3.30515 -7.64591
ltoes -2.06709
504
root 1.0662 14.6314 2.76256 15.8772 29.7481 1.48369
lowerback 0.369971 2.1597 1.69937
upperback -6.08977 3.12653 1.87108
thorax -6.55205 1.54076 0.806893
lowerneck -9.73269 -11.1091 -2.72455
upperneck 21.5462 -17.6439 11.8934
head 9.79511 -7.19339 2.40883
rclavicle -9.70069e-014 -2.78299e-014
rhumerus 21.7681 -12.9663 -51.9784
rradius 69.7483
rwrist -21.453
rhand -11.7734 -28.585
rfingers 7.12502
rthumb 14.2754 -58.0743
lclavicle -9.70069e-014 -2.78299e-014
lhumerus 24.6327 -46.2488 75.6121
lradius 130.051
lwrist 8.16215
lhand -21.5908 8.37113
lfingers 7.12502
lthumb 4.80387 38.2967
rfemur 20.502 -33.5614 10.5048
rtibia 6.36111e-015
rfoot -22.2186 -15.0522
rtoes 6.91832
lfemur -54.3697 -10.7694 -16.9172
ltibia 41.8373
lfoot -3.12809 -7.96573
ltoes -2.20089
505
root 1.0494 14.6338 2.76076 15.8011 30.1609 1.46524
lowerback 0.385061 2.50555 1.8087
upperback -6.11795 3.59388 1.78341
thorax -6.5813 1.76447 0.625692
lowerneck -9.63836 -11.2654 -2.77695
upperneck 21.8248 -17.9041 11.9707
head 9.91351 -7.28917 2.41067
rclavicle 4.87519e-014 3.26007e-014
rhumerus 23.7318 -14.069 -51.6409
rradius 62.4753
rwrist -18.814
rhand -11.387 -28.537
rfingers 7.12502
rthumb 14.6477 -57.9996
lclavicle 4.87519e-014 3.26007e-014
lhumerus 24.4606 -46.1063 75.5121
lradius 129.911
lwrist 7.85625
lhand -21.3628 8.4359
lfingers 7.12502
lthumb 5.02404 38.3563
rfemur 20.6404 -33.8308 10.6196
rtibia 3.18055e-014
rfoot -22.2052 -15.1268
rtoes 7.01175
lfemur -54.2824 -10.6402 -17.0421
ltibia 41.6963
lfoot -2.98889 -8.20676
ltoes -2.35683
506
root 1.03342 14.6392 2.75852 15.7326 30.3897 1.41563
lowerback 0.407911 2.81765 1.93606
upperback -6.15026 4.01514 1.67204
thorax -6.61328 1.96314 0.412241
lowerneck -9.62434 -11.3347 -2.746
upperneck 22.2024 -18.0746 12.0504
head 10.0688 -7.32641 2.40882
rclavicle 7.67806e-014 2.14687e-014
rhumerus 25.5006 -15.158 -51.724
rradius 56.0611
rwrist -16.6248
rhand -11.8305 -28.0681
rfingers 7.12502
rthumb 14.2203 -57.5613
lclavicle 7.67806e-014 2.14687e-014
lhumerus 24.3228 -45.9582 75.4152
lradius 129.837
lwrist 7.74271
lhand -21.1641 8.4765
lfingers 7.12502
lthumb 5.21595 38.3923
rfemur 20.6758 -33.927 10.7639
rtibia 3.18055e-015
rfoot -22.1474 -15.2117
rtoes 6.88638
lfemur -54.1912 -10.4615 -17.1013
ltibia 41.5478
lfoot -2.88178 -8.36602
ltoes -2.51548
507
root 1.01805 14.6469 2.75574 15.6654 30.4555 1.32623
lowerback 0.435048 3.0974 2.09433
upperback -6.18164 4.39227 1.53505
thorax -6.63913 2.13703 0.157701
lowerneck -9.65697 -11.3269 -2.62891
upperneck 22.6172 -18.1643 12.1486
head 10.2348 -7.31256 2.40973
rclavicle -5.23798e-014 -3.65764e-014
rhumerus 26.9788 -16.286 -52.2649
rradius 50.9444
rwrist -14.8403
rhand -13.1571 -27.1922
rfingers 7.12502
rthumb 12.9417 -56.7708
lclavicle -5.23798e-014 -3.65764e-014
lhumerus 24.2515 -45.8166 75.3026
lradius 129.835
lwrist 7.82193
lhand -20.9932 8.49434
lfingers 7.12502
lthumb 5.38087 38.406
rfemur 20.6188 -33.8674 10.9483
rtibia 3.18055e-015
rfoot -22.0619 -15.2974
rtoes 6.63539
lfemur -54.1038 -10.2768 -17.0664
ltibia 41.3938
lfoot -2.80043 -8.42688
ltoes -2.67032
